<?xml version="1.0" standalone="no"?>
<!DOCTYPE svg PUBLIC "-//W3C//DTD SVG 20010904//EN"
 "http://www.w3.org/TR/2001/REC-SVG-20010904/DTD/svg10.dtd">
<svg version="1.0" xmlns="http://www.w3.org/2000/svg"
 width="400.000000pt" height="400.000000pt" viewBox="0 0 400.000000 400.000000"
 preserveAspectRatio="xMidYMid meet">
<metadata>
Created by potrace 1.14, written by Peter Selinger 2001-2017
</metadata>
<g transform="translate(0.000000,400.000000) scale(0.100000,-0.100000)"
fill="#000000" stroke="none">
<path d="M1950 3976 c-25 -7 -52 -16 -60 -21 -9 -6 -137 -107 -285 -226 -149
-118 -452 -361 -675 -538 -223 -177 -418 -333 -435 -346 -16 -14 -112 -90
-213 -170 -100 -80 -192 -160 -203 -178 -10 -18 -29 -61 -40 -97 -20 -64 -21
-82 -21 -1095 0 -1007 0 -1031 20 -1087 34 -97 104 -168 195 -198 30 -9 420
-12 1780 -12 1718 0 1743 0 1788 20 90 39 158 120 183 219 17 68 15 2085 -3
2158 -7 27 -24 70 -38 96 -26 48 -37 58 -278 249 -71 56 -146 115 -165 130
-140 112 -573 456 -655 520 -55 44 -183 145 -285 225 -102 81 -200 159 -219
173 -19 15 -65 53 -103 85 -106 91 -191 118 -288 93z"/>
</g>
</svg>
