<?xml version="1.0" encoding="utf-8"?>
<!-- Generator: Adobe Illustrator 27.7.0, SVG Export Plug-In . SVG Version: 6.00 Build 0)  -->
<svg version="1.1" id="Layer_1" xmlns="http://www.w3.org/2000/svg" xmlns:xlink="http://www.w3.org/1999/xlink" x="0px" y="0px"
	 width="224.08px" height="95.99px" viewBox="0 0 224.08 95.99" style="enable-background:new 0 0 224.08 95.99;"
	 xml:space="preserve">
<style type="text/css">
	.st0{fill-rule:evenodd;clip-rule:evenodd;fill:#181818;}
</style>
<path class="st0" d="M222.54,64.96l-8.04-4.44l-1.05-2.86l10.55,6L222.54,64.96z M211.48,75.86l-7.11-21.02l-12.82-7.03l0.73-2.2
	l11.08,6.24l-2.29-6.78c-2.12-6.2-3.98-11.69-5.8-18.07h-0.32c-1.84,6.38-3.68,11.87-5.8,18.07l-10.58,30.79h-3.71l10.99-31.21
	l-10.42-5.85v-2.86l11.22,6.46l6.63-18.85h3.69l18.41,52.31H211.48z M169.26,40.16c0-3.75,0.33-8.83,0.48-12.41h-0.24l-2.88,8.95
	l-9.83,25.23h-2.86l-9.73-25.23l-3.07-8.95h-0.16c0.19,3.58,0.53,8.65,0.53,12.41v35.7h-3.48V23.54h4.86l9.15,24.54l3.23,9.11h0.32
	l3.1-9.11l9.29-24.54h4.86v52.31h-3.58V40.16z M112,3.81L83.5,19.58h-5.97L111.97,0L112,0.04L112.03,0l49.41,28.08l-0.97,2.54
	L112,3.81z M92.12,72.71h5.51v0.21l0.13-0.06l-0.84,22.83h-3.14V75.86h-1.66h-3.66H58.05v14.93h-0.09v4.91h-3.14l-0.84-22.83
	l0.42,0.2v-0.35h2.36c2.06-0.93,4.38-4.71,7.02-19.2c2-11.07,3.09-18.04,4.91-29.96h23.43V72.71z M88.46,26.69H71.62
	c-1.8,10.4-2.58,17.33-4.46,27.56c-2.01,11.02-3.91,16.05-5.87,18.46h27.17V26.69z M56.53,34.5c0-0.06,0-0.12,0-0.18
	c0-0.93-0.09-1.82-0.25-2.66l6.97-3.96l-0.65,3.44L56.53,34.5z M55.18,60.61c0,10.07-7.25,15.24-19.32,15.24H21.58V23.54h13.26
	c10.75,0,17.11,3.98,17.11,12.7c0,5.45-3.05,9.82-9.25,11.41v0.32C50.44,49.11,55.18,53.35,55.18,60.61z M48.33,36.4
	c0-6.97-4.71-9.72-14.52-9.72h-8.6V46.5h8.16C44.12,46.5,48.33,43.06,48.33,36.4z M34.9,49.63h-9.69v23.1h9.69
	c10.63,0,16.65-3.69,16.65-12.09C51.56,53.11,45.6,49.63,34.9,49.63z M0,63.65l18.07-10.11v2.4l-16.6,9.02L0,63.65z M115.72,22.59
	c11.4,0,19.54,10.33,19.54,26.93c0,16.67-8.14,27.29-19.54,27.29S96.18,66.19,96.18,49.52C96.18,32.92,104.32,22.59,115.72,22.59z
	 M115.72,73.48c9.36,0,15.7-9.35,15.7-23.96c0-14.55-6.34-23.6-15.7-23.6s-15.7,9.05-15.7,23.6
	C100.02,64.13,106.36,73.48,115.72,73.48z"/>
</svg>
