<?xml version="1.0" encoding="utf-8"?>
<!-- Generator: Adobe Illustrator 27.8.1, SVG Export Plug-In . SVG Version: 6.00 Build 0)  -->
<svg version="1.1" id="Layer_1" xmlns="http://www.w3.org/2000/svg" xmlns:xlink="http://www.w3.org/1999/xlink" x="0px" y="0px"
	 width="224.1px" height="96px" viewBox="0 0 224.1 96" style="enable-background:new 0 0 224.1 96;" xml:space="preserve">
<style type="text/css">
	.st0{fill-rule:evenodd;clip-rule:evenodd;fill:#FFFFFF;}
</style>
<path class="st0" d="M222.5,65l-8-4.4l-1.1-2.9l10.6,6L222.5,65z M211.5,75.9l-7.1-21l-12.8-7l0.7-2.2l11.1,6.2l-2.3-6.8
	c-2.1-6.2-4-11.7-5.8-18.1h-0.3c-1.8,6.4-3.7,11.9-5.8,18.1l-10.6,30.8h-3.7l11-31.2l-10.4-5.8v-2.9l11.2,6.5l6.6-18.8h3.7
	l18.4,52.3H211.5z M169.3,40.2c0-3.8,0.3-8.8,0.5-12.4h-0.2l-2.9,8.9l-9.8,25.2h-2.9l-9.7-25.2l-3.1-8.9H141
	c0.2,3.6,0.5,8.6,0.5,12.4v35.7H138V23.5h4.9l9.1,24.5l3.2,9.1h0.3l3.1-9.1l9.3-24.5h4.9v52.3h-3.6L169.3,40.2L169.3,40.2z M112,3.8
	L83.5,19.6h-6L112,0l0,0l0,0l49.4,28.1l-1,2.5L112,3.8z M92.1,72.7h5.5v0.2l0.1-0.1l-0.8,22.8h-3.1V75.9h-1.7h-3.7H58v14.9H58v4.9
	h-3.1L54,72.9l0.4,0.2v-0.3h2.4c2.1-0.9,4.4-4.7,7-19.2c2-11.1,3.1-18,4.9-30h23.4V72.7z M88.5,26.7H71.6C69.8,37.1,69,44,67.2,54.3
	c-2,11-3.9,16.1-5.9,18.5h27.2C88.5,72.7,88.5,26.7,88.5,26.7z M56.5,34.5c0-0.1,0-0.1,0-0.2c0-0.9-0.1-1.8-0.2-2.7l7-4l-0.7,3.4
	L56.5,34.5z M55.2,60.6c0,10.1-7.2,15.2-19.3,15.2H21.6V23.5h13.3c10.8,0,17.1,4,17.1,12.7c0,5.5-3,9.8-9.2,11.4V48
	C50.4,49.1,55.2,53.4,55.2,60.6z M48.3,36.4c0-7-4.7-9.7-14.5-9.7h-8.6v19.8h8.2C44.1,46.5,48.3,43.1,48.3,36.4z M34.9,49.6h-9.7
	v23.1h9.7c10.6,0,16.7-3.7,16.7-12.1C51.6,53.1,45.6,49.6,34.9,49.6z M0,63.7l18.1-10.1v2.4L1.5,65L0,63.7z M115.7,22.6
	c11.4,0,19.5,10.3,19.5,26.9c0,16.7-8.1,27.3-19.5,27.3S96.2,66.2,96.2,49.5C96.2,32.9,104.3,22.6,115.7,22.6z M115.7,73.5
	c9.4,0,15.7-9.3,15.7-24c0-14.5-6.3-23.6-15.7-23.6S100,35,100,49.5C100,64.1,106.4,73.5,115.7,73.5z"/>
</svg>
