<?xml version="1.0" encoding="utf-8"?>
<!-- Generator: Adobe Illustrator 27.7.0, SVG Export Plug-In . SVG Version: 6.00 Build 0)  -->
<svg version="1.1" id="Layer_1" xmlns="http://www.w3.org/2000/svg" xmlns:xlink="http://www.w3.org/1999/xlink" x="0px" y="0px"
	 width="38px" height="38px" viewBox="0 0 38 38" style="enable-background:new 0 0 38 38;" xml:space="preserve">
<style type="text/css">
	.st0{fill-rule:evenodd;clip-rule:evenodd;fill:none;stroke:#181818;stroke-width:2;stroke-miterlimit:10;}
	.st1{fill:#181818;}
</style>
<path class="st0" d="M29.36,5.43c1.38,0,2.5,1.12,2.5,2.5s-1.12,2.5-2.5,2.5s-2.5-1.12-2.5-2.5S27.98,5.43,29.36,5.43z"/>
<path class="st0" d="M19.18,10.47c4.97,0,9,3.93,9,8.78v0.44c0,4.85-4.03,8.78-9,8.78c-4.97,0-9-3.93-9-8.78v-0.44
	C10.18,14.4,14.21,10.47,19.18,10.47z"/>
<g>
	<path class="st1" d="M28,2c4.41,0,8,3.71,8,8.27v17.46c0,4.56-3.59,8.27-8,8.27H10c-4.49,0-8-3.57-8-8.12v-18C2,5.39,5.44,2,10,2
		H28 M28,0H10C4.48,0,0,4.2,0,9.88v18C0,33.55,4.48,38,10,38h18c5.52,0,10-4.6,10-10.27V10.27C38,4.6,33.52,0,28,0L28,0z"/>
</g>
</svg>
