<?xml version="1.0" encoding="utf-8"?>
<!-- Generator: Adobe Illustrator 27.7.0, SVG Export Plug-In . SVG Version: 6.00 Build 0)  -->
<svg version="1.1" id="Layer_1" xmlns="http://www.w3.org/2000/svg" xmlns:xlink="http://www.w3.org/1999/xlink" x="0px" y="0px"
	 width="38px" height="38px" viewBox="0 0 38 38" style="enable-background:new 0 0 38 38;" xml:space="preserve">
<style type="text/css">
	.st0{fill-rule:evenodd;clip-rule:evenodd;fill:none;stroke:#181818;stroke-width:2;stroke-miterlimit:10;}
	.st1{fill:#181818;}
</style>
<path class="st0" d="M26.39,23.84c-0.88,0.92-6.11,6.27-7.36,6.27c-1.25,0-6.48-5.35-7.36-6.27c-1.05-1.1-1.72-2.72-1.72-4.53
	c0-3.31,2.24-6,5-6c1.69,0,3.18,1.02,4.09,2.57c0.9-1.55,2.39-2.57,4.09-2.57c2.76,0,5,2.69,5,6
	C28.11,21.12,27.44,22.74,26.39,23.84z"/>
<g>
	<path class="st1" d="M19.03,2.46c2.85,0.72,15.42,8.24,16.5,10.64v19.35c0,1.65-1.35,3-3,3h-27c-1.65,0-3-1.35-3-3V13.1
		C3.61,10.7,16.18,3.18,19.03,2.46 M19.43,0.46c0,0-0.13,0-0.28,0C19.35,0.46,19.43,0.46,19.43,0.46L19.43,0.46z M19.15,0.46
		c-0.39,0-0.53,0-0.53,0S18.92,0.46,19.15,0.46L19.15,0.46z M19.15,0.46c-0.07,0-0.15,0-0.25,0c-1.72,0-18.38,9.15-18.38,12.5
		c0,3.35,0,19.5,0,19.5c0,2.76,2.24,5,5,5h27c2.76,0,5-2.24,5-5c0,0,0-16.15,0-19.5C37.53,9.61,20.88,0.46,19.15,0.46L19.15,0.46z"
		/>
</g>
</svg>
