<?xml version="1.0" encoding="utf-8"?>
<!-- Generator: Adobe Illustrator 27.8.1, SVG Export Plug-In . SVG Version: 6.00 Build 0)  -->
<svg version="1.1" id="Layer_1" xmlns="http://www.w3.org/2000/svg" xmlns:xlink="http://www.w3.org/1999/xlink" x="0px" y="0px"
	 width="54.2px" height="54.2px" viewBox="0 0 54.2 54.2" style="enable-background:new 0 0 54.2 54.2;" xml:space="preserve">
<style type="text/css">
	.st0{fill-rule:evenodd;clip-rule:evenodd;fill:none;stroke:#F6EB68;stroke-width:2.5;stroke-miterlimit:10;}
</style>
<path class="st0" d="M9.1,52c-3.7,0-7-3.3-7-7c0,0,0-22.5,0-27c0-4.5,21.7-16,24-16c2.3,0-1.3,0,1,0c2.3,0,25,11.5,25,16
	c0,4.5,0,27,0,27c0,3.7-3.3,7-7,7H9.1z"/>
<path class="st0" d="M36.8,33.5c-1.2,1.2-8.3,8.5-9.9,8.5c-1.7,0-8.8-7.2-9.9-8.5c-1.4-1.5-2.3-3.7-2.3-6.1c0-4.5,3-8.1,6.8-8.1
	c2.3,0,4.3,1.4,5.5,3.5c1.2-2.1,3.2-3.5,5.5-3.5c3.7,0,6.8,3.6,6.8,8.1C39.1,29.8,38.2,32,36.8,33.5z"/>
</svg>
